<svg xmlns="http://www.w3.org/2000/svg" version="1.1" xmlns:xlink="http://www.w3.org/1999/xlink" xmlns:svgjs="http://svgjs.com/svgjs" width="512" height="512" x="0" y="0" viewBox="0 0 512 512" style="enable-background:new 0 0 512 512" xml:space="preserve" class=""><g><path d="M246.438 217.868h15.082v47.563a8 8 0 0 0 13.769 5.542l51.015-53.105h119.918c19.451 0 35.276-15.825 35.276-35.277V45.882c0-19.451-15.825-35.276-35.276-35.276H246.438c-19.452 0-35.277 15.825-35.277 35.276v136.709c0 19.452 15.825 35.277 35.277 35.277zM227.161 45.882c0-10.629 8.647-19.276 19.277-19.276h199.784c10.629 0 19.276 8.647 19.276 19.276v136.709c0 10.629-8.647 19.277-19.276 19.277H322.896a8.003 8.003 0 0 0-5.77 2.458l-39.606 41.23v-35.688a8 8 0 0 0-8-8h-23.082c-10.63 0-19.277-8.647-19.277-19.277zm11.62 41.806 26.528 7.047v49.948a8.001 8.001 0 0 0 6.561 7.87c11.94 2.183 21.79 4.087 29.705 5.617 20.783 4.018 31.371 6.027 41.959 6.027s21.176-2.009 41.959-6.027c7.915-1.53 17.765-3.434 29.705-5.617a7.982 7.982 0 0 0 5.018-3.156v26.4a8.001 8.001 0 0 0 12.809 6.394l6.996-5.262 6.998 5.262a7.999 7.999 0 0 0 12.808-6.394v-36.006c0-2.858-1.525-5.5-4-6.928l-7.806-4.506V87.759l.267-.071c3.506-.931 5.946-4.104 5.946-7.732s-2.44-6.801-5.946-7.732l-102.699-27.28a8.009 8.009 0 0 0-4.107 0l-102.699 27.28c-3.506.931-5.946 4.104-5.946 7.732s2.438 6.801 5.944 7.732zm143.676 54.773c-38.924 7.524-38.922 7.524-77.846 0a3179.608 3179.608 0 0 0-23.302-4.438V98.985l60.171 15.983a7.987 7.987 0 0 0 4.108 0l60.171-15.983v39.039c-9.113 1.694-16.848 3.19-23.302 4.437zm61.369 17.422a7.999 7.999 0 0 0-7.611-.001V144.41l3.805-2.197 3.806 2.197zm-11.805-31.526-7.805 4.506a7.968 7.968 0 0 0-2.457 2.222v-40.35l10.262-2.726zm-88.487-67.403 71.538 19.003-71.538 19.003-71.538-19.003zM496 311.212h-51.779c-9.197-25.24-33.434-43.312-61.816-43.312s-52.619 18.072-61.816 43.312H241.3c-9.089-20.438-23.53-37.92-42.044-50.783a121.579 121.579 0 0 0-33.832-16.442c18.004-11.746 29.938-32.054 29.938-55.108 0-36.264-29.503-65.767-65.767-65.767-36.265 0-65.768 29.503-65.768 65.767 0 23.054 11.933 43.361 29.937 55.108a121.57 121.57 0 0 0-33.833 16.442c-18.513 12.862-32.954 30.344-42.043 50.783H16a8 8 0 0 0-8 8v174.182a8 8 0 0 0 8 8h480a8 8 0 0 0 8-8V319.212a8 8 0 0 0-8-8zm-8 16v116.85a122.617 122.617 0 0 0-23.628-29.077 121.967 121.967 0 0 0-46.149-26.202c18.011-11.745 29.95-32.056 29.95-55.116 0-2.178-.112-4.331-.32-6.455zm-105.595 72.223.026-.001c51.413.012 94.765 36.381 104.287 85.96H278.091c9.521-49.579 52.874-85.947 104.288-85.96l.026.001zm0-115.536c27.442 0 49.768 22.325 49.768 49.768 0 27.434-22.311 49.752-49.741 49.767h-.052c-27.43-.014-49.741-22.333-49.741-49.767-.001-27.442 22.324-49.768 49.766-49.768zm-302.577-95.02c0-27.441 22.325-49.767 49.768-49.767 27.441 0 49.767 22.325 49.767 49.767 0 27.438-22.319 49.761-49.756 49.767h-.022c-27.438-.006-49.757-22.329-49.757-49.767zm49.756 65.767h.022c39.983.004 75.679 21.851 93.939 56.566H35.643c18.26-34.714 53.957-56.562 93.941-56.566zM24 327.212h292.958a66.222 66.222 0 0 0-.32 6.455c0 23.059 11.939 43.371 29.949 55.116a121.985 121.985 0 0 0-46.151 26.203c-20.537 18.573-34.067 43.358-38.594 70.408H24z" fill="#307ad5" data-original="#000000" class=""></path></g></svg>