<svg xmlns="http://www.w3.org/2000/svg" version="1.1" xmlns:xlink="http://www.w3.org/1999/xlink" xmlns:svgjs="http://svgjs.com/svgjs" width="512" height="512" x="0" y="0" viewBox="0 0 74 74" style="enable-background:new 0 0 512 512" xml:space="preserve" class=""><g><g data-name="line icons"><path d="M57.7 38.234a1.013 1.013 0 0 1-.468-.116 1 1 0 0 1-.532-.884v-5.852a19.7 19.7 0 0 0-39.4 0v5.852a1 1 0 0 1-1.564.826 2.07 2.07 0 0 0-1.171-.352H13.1a3.7 3.7 0 0 0-1 .132 1 1 0 0 1-1.268-.964v-5.494a26.174 26.174 0 0 1 52.347 0v5.494a1 1 0 0 1-1.268.963 3.731 3.731 0 0 0-1-.131h-1.486a2.048 2.048 0 0 0-1.159.352 1 1 0 0 1-.566.174zm-44.6-2.526h1.476a4.176 4.176 0 0 1 .735.064v-4.39a21.7 21.7 0 0 1 43.4 0v4.389a4.135 4.135 0 0 1 .723-.063h1.488q.132 0 .264.006v-4.332a24.174 24.174 0 0 0-48.347 0v4.332c.079-.004.167-.006.261-.006zM8.337 55.581A6.344 6.344 0 0 1 2 49.245V45.7a6.344 6.344 0 0 1 6.337-6.337 1 1 0 0 1 0 2A4.342 4.342 0 0 0 4 45.7v3.544a4.341 4.341 0 0 0 4.337 4.336 1 1 0 1 1 0 2z" fill="#1ec1d9" data-original="#000000" class=""></path><path d="M14.574 59.246h-1.1a6.289 6.289 0 0 1-6.314-5.924V41.627a5.93 5.93 0 0 1 5.929-5.927h1.485a4.13 4.13 0 0 1 4.126 4.129V55.12a4.13 4.13 0 0 1-4.126 4.126zM13.089 37.7a3.928 3.928 0 0 0-3.924 3.924v11.7a4.3 4.3 0 0 0 4.314 3.924h1.1A2.129 2.129 0 0 0 16.7 55.12V39.829a2.129 2.129 0 0 0-2.126-2.129zM60.521 59.246h-1.095A4.13 4.13 0 0 1 55.3 55.12V39.829a4.13 4.13 0 0 1 4.126-4.129h1.485a5.93 5.93 0 0 1 5.924 5.924v11.309a6.32 6.32 0 0 1-6.314 6.313zM59.426 37.7a2.129 2.129 0 0 0-2.126 2.129V55.12a2.129 2.129 0 0 0 2.126 2.126h1.095a4.318 4.318 0 0 0 4.314-4.313V41.627a3.928 3.928 0 0 0-3.924-3.927z" fill="#1ec1d9" data-original="#000000" class=""></path><path d="M65.663 55.581a1 1 0 0 1 0-2A4.341 4.341 0 0 0 70 49.245V45.7a4.342 4.342 0 0 0-4.337-4.337 1 1 0 0 1 0-2A6.344 6.344 0 0 1 72 45.7v3.544a6.344 6.344 0 0 1-6.337 6.337zM56.482 65.108H43.717a1 1 0 0 1 0-2h12.765a4.7 4.7 0 0 0 4.7-4.683v-.179a1 1 0 0 1 2 0v.179a6.7 6.7 0 0 1-6.7 6.683z" fill="#1ec1d9" data-original="#000000" class=""></path><path d="M38.771 68.791c-3.276 0-5.941-2.1-5.941-4.683s2.665-4.683 5.941-4.683 5.942 2.1 5.942 4.683-2.665 4.683-5.942 4.683zm0-7.366c-2.136 0-3.941 1.229-3.941 2.683s1.8 2.683 3.941 2.683 3.942-1.229 3.942-2.683-1.805-2.683-3.942-2.683z" fill="#1ec1d9" data-original="#000000" class=""></path></g></g></svg>