<svg xmlns="http://www.w3.org/2000/svg" version="1.1" xmlns:xlink="http://www.w3.org/1999/xlink" xmlns:svgjs="http://svgjs.com/svgjs" width="512" height="512" x="0" y="0" viewBox="0 0 74 74" style="enable-background:new 0 0 512 512" xml:space="preserve" class=""><g><path d="M3 30a1 1 0 0 1-.608-1.794l9.5-7.27a1 1 0 0 1 1.214 1.588l-9.5 7.27A.989.989 0 0 1 3 30Z" fill="#fff" data-original="#000000"></path><path d="M71 72H3a1 1 0 0 1-1-1V29a1 1 0 0 1 2 0v41h66V29a1 1 0 0 1 2 0v42a1 1 0 0 1-1 1Z" fill="#fff" data-original="#000000"></path><path d="M37 54.111a13.257 13.257 0 0 1-8.382-2.965L2.369 29.776a1 1 0 0 1 1.262-1.552L29.882 49.6a11.318 11.318 0 0 0 14.236 0l26.251-21.376a1 1 0 0 1 1.262 1.552l-26.249 21.37A13.257 13.257 0 0 1 37 54.111Z" fill="#fff" data-original="#000000"></path><path d="M71 72a1 1 0 0 1-.617-.214L44.132 51.158a1 1 0 0 1 1.236-1.572l26.25 20.628A1 1 0 0 1 71 72ZM3 72a1 1 0 0 1-.619-1.786l26.25-20.63a1 1 0 1 1 1.236 1.572L3.618 71.786A1 1 0 0 1 3 72ZM71 30a.989.989 0 0 1-.606-.206l-9.5-7.27a1 1 0 1 1 1.214-1.588l9.5 7.27A1 1 0 0 1 71 30ZM46.149 11a1 1 0 0 1-.606-.206L37 4.259l-8.543 6.535a1 1 0 0 1-1.215-1.588l9.151-7a1 1 0 0 1 1.214 0l9.151 7A1 1 0 0 1 46.149 11Z" fill="#fff" data-original="#000000"></path><path d="M61.5 37.73a1 1 0 0 1-1-1V11h-47v25.73a1 1 0 0 1-2 0V10a1 1 0 0 1 1-1h49a1 1 0 0 1 1 1v26.73a1 1 0 0 1-1 1Z" fill="#fff" data-original="#000000"></path><path d="M52.5 19.5h-31a1 1 0 0 1 0-2h31a1 1 0 0 1 0 2ZM52.5 27.25h-31a1 1 0 0 1 0-2h31a1 1 0 0 1 0 2ZM52.5 35h-31a1 1 0 0 1 0-2h31a1 1 0 0 1 0 2Z" fill="#fff" data-original="#000000"></path></g></svg>