<svg xmlns="http://www.w3.org/2000/svg" version="1.1" xmlns:xlink="http://www.w3.org/1999/xlink" xmlns:svgjs="http://svgjs.com/svgjs" width="512" height="512" x="0" y="0" viewBox="0 0 48 48" style="enable-background:new 0 0 512 512" xml:space="preserve" class=""><g><path d="M24 1C14.617 1 7 8.617 7 18c0 9.78 8.653 19.394 12.913 23.389l.017.015a5.997 5.997 0 0 0 8.14-.001l.016-.015C32.346 37.394 41 27.78 41 18c0-9.383-7.617-17-17-17zm0 2c8.279 0 15 6.721 15 15 0 9.2-8.274 18.171-12.282 21.929l-.005.005a3.997 3.997 0 0 1-5.426.001l-.005-.005C17.274 36.171 9 27.2 9 18 9 9.721 15.721 3 24 3z" fill="#fff" data-original="#000000" class=""></path><path d="M24 11c-3.863 0-7 3.137-7 7s3.137 7 7 7 7-3.137 7-7-3.137-7-7-7zm0 2c2.76 0 5 2.24 5 5s-2.24 5-5 5-5-2.24-5-5 2.24-5 5-5zM12.702 37h-.466a3 3 0 0 0-2.683 1.658l-2 4A3 3 0 0 0 10.236 47h27.528a3 3 0 0 0 2.683-4.342l-2-4A3 3 0 0 0 35.764 37h-.467a1 1 0 0 0 0 2h.467c.379 0 .725.214.894.553l2 4A1 1 0 0 1 37.764 45H10.236a1 1 0 0 1-.894-1.447l2-4a.998.998 0 0 1 .894-.553h.466a1 1 0 0 0 0-2z" fill="#fff" data-original="#000000" class=""></path></g></svg>