<svg xmlns="http://www.w3.org/2000/svg" version="1.1" xmlns:xlink="http://www.w3.org/1999/xlink" xmlns:svgjs="http://svgjs.com/svgjs" width="512" height="512" x="0" y="0" viewBox="0 0 512 512" style="enable-background:new 0 0 512 512" xml:space="preserve" class=""><g><path d="M511.633 268.047c-.844-4.137-4.227-7.36-8.414-7.969-4.2-.613-8.442 1.594-10.364 5.375-1.843 3.625-1.285 8.11 1.395 11.172 2.8 3.203 7.453 4.281 11.379 2.656 4.36-1.8 6.95-6.601 6.004-11.234zm0 0" fill="#eab830" data-original="#000000" class=""></path><path d="M486.57 296.3c-4.8-2.777-10.941-1.14-13.718 3.657l-23.141 39.969c-7.23 12.476-23.262 16.75-35.738 9.523-12.477-7.226-16.75-23.258-9.524-35.734l92.774-160.207c28.261-48.801 11.55-111.5-37.254-139.758-48.805-28.262-111.5-11.55-139.758 37.254L308.473 71.27c-33.528-16.653-71.493-20.52-107.989-10.793-39.75 10.597-72.996 36.035-93.609 71.636L20.801 280.75C.184 316.348-5.332 357.844 5.26 397.594c10.594 39.746 36.036 72.992 71.634 93.605C100.668 504.965 127.066 512 153.82 512c13.313 0 26.711-1.742 39.918-5.262 39.75-10.593 72.992-36.035 93.606-71.633l63.918-110.37c.058-.102.105-.212.16-.313.062-.106.137-.203.2-.309l21.8-37.648c20.617-35.598 26.133-77.094 15.539-116.844-9.727-36.496-31.98-67.5-63.113-88.289l11.738-20.27c22.71-39.218 73.098-52.652 112.32-29.937 19.004 11 32.578 28.746 38.235 49.96 5.656 21.216 2.71 43.364-8.293 62.364l-92.774 160.203c-12.773 22.059-5.219 50.399 16.836 63.172A45.94 45.94 0 0 0 427 373.04c15.969 0 31.523-8.27 40.082-23.05l23.145-39.97c2.78-4.796 1.144-10.937-3.657-13.718zM264.137 148.009c2.394-4.117 7.308-5.88 11.672-4.465.066.023.128.043.191.066.242.086.477.176.71.278.274.12.54.254.802.398.066.04.136.067.203.106l.023.011c4.739 2.75 6.36 8.84 3.617 13.586l-22.53 38.903a9.877 9.877 0 0 1-6.044 4.62 9.9 9.9 0 0 1-7.547-1.003 9.88 9.88 0 0 1-4.629-6.051 9.865 9.865 0 0 1 1.004-7.547zm-139.887-5.836c17.926-30.957 46.836-53.078 81.402-62.293 31.313-8.348 63.875-5.195 92.739 8.8l-20.133 34.77a29.779 29.779 0 0 0-13.262.504c-6.965 1.856-12.898 6.067-16.933 11.945a.215.215 0 0 1-.028.036c-.43.628-.844 1.273-1.23 1.941l-22.621 39.059c-6.524 11.265-4.852 25.054 3.156 34.441l-12.676 21.89-107.52-61.554zm145.723 282.871c-37.008 63.906-119.11 85.789-183.016 48.781C23.051 436.816 1.168 354.72 38.176 290.812L97.059 189.13l231.796 134.23zm99.586-250.25c9.214 34.566 4.414 70.652-13.512 101.61l-16.774 28.964-107.207-62.086 12.641-21.832a29.51 29.51 0 0 0 5.5.524c2.586 0 5.191-.336 7.758-1.02 7.726-2.062 14.187-7.004 18.191-13.922l22.621-39.058c6.52-11.262 4.852-25.047-3.156-34.442l20.145-34.793c26.507 18.07 45.445 44.742 53.793 76.055zm0 0" fill="#eab830" data-original="#000000" class=""></path></g></svg>